<svg width="35" height="34" viewBox="0 0 35 34" fill="#9aa3ad" xmlns="http://www.w3.org/2000/svg">
<path fill-rule="evenodd" clip-rule="evenodd" d="M18.1842 15.7378C18.1842 19.2516 18.4439 22.7653 18.9446 26.242L20.0296 33.7318C19.0559 33.8983 18.0637 34 17.0437 34C16.0237 34 15.0314 33.9075 14.0578 33.7318L15.1427 26.242C15.6435 22.7653 15.9031 19.2516 15.9031 15.7378V0.0462333C16.2833 0.0184933 16.6542 0 17.0437 0C17.4331 0 17.8133 0.0184933 18.1842 0.0462333V15.7378ZM6.72289 30.5233L11.1646 21.9238C11.4985 21.2766 11.6746 20.5553 11.6746 19.8249V0.869187C4.89612 3.11613 0 9.48708 0 16.9954C0 22.5156 2.64279 27.4164 6.72289 30.5233ZM22.4127 19.8249C22.4127 20.5553 22.5889 21.2766 22.9227 21.9238L27.3552 30.5233C31.4446 27.4164 34.0781 22.5156 34.0781 16.9954C34.0781 9.47783 29.182 3.10688 22.4034 0.869187V19.8249H22.4127Z" fill="#9aa3ad"/>
<defs>
<linearGradient id="paint0_linear_6_542" x1="17.0437" y1="6.34321" x2="17.0437" y2="38.124" gradientUnits="userSpaceOnUse">
<stop stop-color="#00BFCB"/>
<stop offset="1" stop-color="#6619D0"/>
</linearGradient>
</defs>
</svg>
