<svg width="58" height="43" viewBox="-0.1 -0.1 58.25 43.2" fill="none" xmlns="http://www.w3.org/2000/svg">
<path d="M24.3086 8H32.7079C32.9349 8 33.0646 7.73608 32.9673 7.53815L28.7514 0.148454C28.6542 -0.0494846 28.3623 -0.0494846 28.2326 0.148454L24.0167 7.53815C23.9518 7.73608 24.0816 8 24.3086 8Z" fill="#9aa3ad"/>
<path d="M27.0505 29.7071C31.6255 17.5272 18.182 10.3825 18.182 10.3825L0.445113 0.0397426C0.198768 -0.0963463 -0.0827696 0.141809 0.0228072 0.379965L2.23992 6.43593C2.3103 6.67408 2.48627 6.8442 2.69742 6.98029L14.0293 13.4785C14.0293 13.4785 20.9622 17.255 22.1939 21.848L4.84415 11.8114C4.56261 11.6413 4.24588 11.9135 4.35146 12.1857L6.56857 18.1055C6.67415 18.3777 6.8853 18.6499 7.16684 18.786L26.5226 29.9793C26.6634 30.0473 26.9449 29.9453 27.0505 29.7071Z" fill="#9aa3ad"/>
<path d="M57.5055 0.0440979L39.8004 10.395C39.8004 10.395 26.381 17.5793 30.9478 29.7347C31.0532 29.973 31.2991 30.0752 31.545 29.939L50.8661 18.7369C51.1471 18.5667 51.3579 18.3283 51.4633 18.056L53.6764 12.1314C53.7818 11.8591 53.4656 11.5867 53.1846 11.7569L35.8659 21.8013C37.0954 17.2047 44.0159 13.4253 44.0159 13.4253L55.3275 6.92197C55.5383 6.78578 55.6788 6.61553 55.7842 6.37719L57.9973 0.316495C58.0324 0.112202 57.7163 -0.0920975 57.5055 0.0440979Z" fill="#9aa3ad"/>
<path d="M49.9259 23.0134L29.0161 35.0582L8.10632 23.0134C8.03544 22.9793 8 23.0475 8 23.0816C8.42528 24.2076 11.0479 30.6907 18.1005 34.4099L24.0545 37.8903L20.3332 40.04C20.156 40.1423 20.156 40.4153 20.3332 40.5177L24.3734 42.872C24.657 43.0427 25.0468 43.0427 25.3303 42.872L28.9807 40.7565L32.631 42.872C32.9146 43.0427 33.3044 43.0427 33.5879 42.872L37.6281 40.5177C37.8053 40.4153 37.8053 40.1423 37.6281 40.04L33.9069 37.8903L39.8609 34.4099C46.9489 30.6907 49.5715 24.2076 49.9614 23.0816C50.0322 23.0134 49.9968 22.9793 49.9259 23.0134Z" fill="#9aa3ad"/>
<path d="M131.813 15.1721C131.052 13.7479 129.117 12 125.913 12C120.997 12 117 15.8518 117 21.4838C117 26.5332 120.299 31 125.913 31C128.356 31 130.703 29.9642 131.813 27.8603V30.4174H136V12.5503H131.813V15.1721ZM131.845 21.6457C131.813 22.5196 131.559 23.3612 131.179 24.138C130.386 25.7564 128.863 27.0187 126.516 27.0187C122.741 27.0187 121.187 23.7819 121.187 21.5809V21.5485C121.187 18.7649 123.09 15.9813 126.484 15.9813C128.99 15.9813 130.639 17.4378 131.369 19.1533C131.718 19.9302 131.876 20.7717 131.845 21.6457Z" fill="#9aa3ad"/>
<path d="M149.207 15.981C150.31 15.9487 151.414 16.24 152.31 16.8225C153.241 17.4051 153.931 18.2467 154.345 19.1853H159C157.897 14.8159 153.828 12 149.034 12C143.345 12 139 16.2076 139 21.4833C139 26.5971 143.172 30.9989 149.207 30.9989C151.448 31.0313 153.621 30.3516 155.414 29.0569C157.172 27.7623 158.448 25.9498 159 23.9107H154.345C153.655 25.3672 152.069 26.9855 149.207 26.9855C145.966 26.9855 143.586 24.7199 143.586 21.4833C143.552 20.0268 144.103 18.6027 145.138 17.5022C145.655 16.9844 146.31 16.596 147 16.3371C147.69 16.0781 148.448 15.9487 149.207 15.981Z" fill="#9aa3ad"/>
<path d="M92.6411 12.0701L87.9686 25.4272L83.6411 12.0701H79L84.7073 28.0916L85.899 31.4221C84.6132 35.3486 83.6098 35.1032 81.4774 34.7877V38.6441C82.4808 38.8895 83.4843 39.0297 84.5192 38.9947C87.5296 38.9947 88.7212 36.0498 89.6934 33.2452C90.5087 30.9664 97 12 97 12H92.6411V12.0701Z" fill="#9aa3ad"/>
<path d="M72.6411 15.8956C67.5624 14.47 66.906 13.3838 66.906 11.9922C66.906 10.6005 68.2534 9.03916 71.2937 9.03916C74.334 9.03916 78.3762 10.6684 78.3762 10.6684V6.22193C75.9578 5.40731 73.4357 5 70.8791 5C65.1785 5 62 7.71541 62 12.0261C62 16.7102 64.5221 18.577 70.6372 20.1384C74.6449 21.1567 74.9559 22.752 74.9559 23.7702C74.9559 24.7885 74.2994 26.9948 70.5681 26.9948C66.6641 26.9948 62.5182 25.2298 62.5182 25.2298V29.6423C63.9693 30.1854 66.7332 31 70.9482 31C77.0979 31 80 27.9452 80 23.4987C80 19.154 77.7198 17.3551 72.6411 15.8956Z" fill="#9aa3ad"/>
<path d="M105.983 12C101.199 12 97 15.721 97 20.2981V31H101.543V20.1664C101.543 17.9601 103.711 16.2149 106.017 16.2149C108.323 16.2149 110.491 17.9931 110.491 20.1664V31H115V20.2981C114.966 15.688 110.767 12 105.983 12Z" fill="#9aa3ad"/>
<path d="M160 4H164.665V20.1656L171.098 11.9796H176.965L169.507 20.9223L177 30.9656H171.486L166.609 24.0866L164.701 26.4599V31H160.035L160 4Z" fill="#9aa3ad"/>
</svg>
